<?xml version="1.0" standalone="no"?><!DOCTYPE svg PUBLIC "-//W3C//DTD SVG 1.1//EN" "http://www.w3.org/Graphics/SVG/1.1/DTD/svg11.dtd"><svg t="1664174500865" class="icon" viewBox="0 0 1024 1024" version="1.1" xmlns="http://www.w3.org/2000/svg" p-id="6518" xmlns:xlink="http://www.w3.org/1999/xlink" width="200" height="200"><path d="M485.45957659 825.97448167L461.09668389 833.22820421l-19.62605632-16.55771753-0.80596916 26.07380969L419.34182487 857.01136469l23.86799935 9.10603765 6.57501166 25.23956089 15.55379102-20.77138093 25.23956091 1.41398101-14.26706832-21.66218895zM259.88718719 304.90834233L275.681355 325.35450763l6.0659785-25.31025994 23.81144009-9.20501633-21.49251124-13.88529345-1.1311848-26.14450875-19.44223879 16.81223413-24.49015097-6.90022729 9.48781252 24.27805381-13.99841193 21.80358706c0.15553791-0.09897867 25.39509881-1.89473454 25.39509881-1.89473454z m270.60768433-110.36121726l24.26391401-7.52237895 19.79573403 16.3456204 0.31107582-26.20106798 21.12487618-14.29534795-23.82557989-8.71012295-6.6032913-25.25370073-15.28513463 20.82794017-25.32439976-1.1311848 14.45088585 21.43595199z m-141.1577235 35.57576202l17.40610612-19.01804449 25.05574337 3.95914682-12.20265605-22.9771913 11.31184803-23.37310597-24.80122679 4.92065389-18.08481703-18.28277437-3.15317763 25.88999215-22.48229795 11.87744044c-0.15553791 0.09897867 22.87821262 11.22700916 22.87821263 11.22700915z m374.70496572 494.73781307l-15.99212514-20.24820797-5.93872021 25.35267938-23.67004198 9.24743577 21.64804915 13.78631477 1.41398101 26.0738097 19.21600183-16.96777203 24.53257039 6.78710881-9.77060873-24.22149457 13.87115365-21.83186669z m-127.25829024 76.94884618l-17.54750425 18.86250657-25.01332393-4.15710415 12.08953757 22.94891168-11.52394518 23.20342825 24.85778603-4.63785768 17.8868597 18.60798999 3.29457572-25.97483102 22.48229795-11.87744042-22.62369604-11.15631011z m-23.75488085-729.30312163a426.64048797 426.64048797 0 0 0-101.39657771-12.27335511c-198.49465316 0-378.33889692 140.15379699-426.08903538 348.19282195-55.79569037 243.1057538 89.92919178 486.87607869 325.42772779 544.46752493a426.06075577 426.06075577 0 0 0 101.41071752 12.28749492c198.48051337 0 378.32475711-140.13965719 426.07489557-348.19282194 55.79569037-243.1057538-89.92919178-486.87607869-325.42772779-544.48166475zM913.68372327 610.9786702c-21.8601463 95.24576035-72.82002164 177.35563718-147.40751954 237.4498298-72.42410698 58.38327559-162.60781532 90.49478418-253.89442886 90.49478417a402.98458579 402.98458579 0 0 1-95.54269635-11.58050442C195.35309424 873.15902773 57.84344171 643.10431858 110.31627673 414.43531081c21.8601463-95.25990015 72.83416145-177.36977699 147.40751954-237.54880846 72.43824677-58.35499599 162.60781532-90.49478418 253.92270849-90.4947842a402.13619719 402.13619719 0 0 1 95.51441672 11.58050442C828.64690576 152.24081345 966.15655829 382.30966241 913.68372327 610.9786702zM739.89131822 364.47936198l-12.25921529 9.71404949a268.65639054 268.65639054 0 0 1 31.61661521 198.97540672c-13.44695934 58.62365237-44.82319779 109.17347323-90.73516095 146.16321625A250.14737921 250.14737921 0 0 1 512.22623696 775.00046653a247.44667549 247.44667549 0 0 1-58.79333009-7.06990502c-136.33604829-33.35581186-220.97695113-174.95186947-188.68162501-315.68539868 13.46109915-58.62365237 44.8373376-109.17347323 90.73516095-146.16321627A247.91328923 247.91328923 0 0 1 652.60627091 294.24692556l7.31028179-13.98427211a264.66896411 264.66896411 0 0 0-148.14278966-45.64330677c-121.99828092 0-232.52917591 86.13972269-261.88342153 214.00602478-34.28903933 149.41537258 55.25837759 299.25493943 200.02175267 334.64688392a262.03895945 262.03895945 0 0 0 62.31414278 7.56479838c121.99828092 0 232.52917591-86.13972269 261.88342153-214.0201646a284.71921472 284.71921472 0 0 0-34.21834027-212.33752718z m-384.3765958 104.80427192l-47.00072853 54.25445109 247.44667549 186.26371748c20.98347808-102.52776251 106.40207047-310.58092726 225.96830406-468.46604602l-17.95755874-28.67553474c-138.0469653 123.27086383-229.84261201 264.90934087-269.99967249 334.91554032z" fill="#606060" p-id="6519"></path></svg>