<?xml version="1.0" standalone="no"?><!DOCTYPE svg PUBLIC "-//W3C//DTD SVG 1.1//EN" "http://www.w3.org/Graphics/SVG/1.1/DTD/svg11.dtd"><svg t="1664174516782" class="icon" viewBox="0 0 1024 1024" version="1.1" xmlns="http://www.w3.org/2000/svg" p-id="6662" xmlns:xlink="http://www.w3.org/1999/xlink" width="200" height="200"><path d="M754.72592555 99.36592555a24.27259221 24.27259221 0 0 0-24.27259222-24.27259222H609.09036999a231.56053333 231.56053333 0 0 0-242.72592554 218.45333334v131.072H245.0014811a24.27259221 24.27259221 0 0 0-24.27259221 24.27259221v126.21748224a24.27259221 24.27259221 0 0 0 24.27259221 24.27259221H366.36444445v325.25274112a24.27259221 24.27259221 0 0 0 24.27259221 24.27259222h145.63555555a24.27259221 24.27259221 0 0 0 24.27259336-24.27259222v-325.25274112h127.18838442a24.27259221 24.27259221 0 0 0 23.78714112-17.9617189l34.95253334-126.2174811a24.27259221 24.27259221 0 0 0-23.3016889-30.58346666H560.54518557V293.54666667a48.54518557 48.54518557 0 0 1 48.54518442-43.69066667h121.36296334a24.27259221 24.27259221 0 0 0 24.27259222-24.27259221z" fill="#446bb8" p-id="6663"></path></svg>