<?xml version="1.0" standalone="no"?><!DOCTYPE svg PUBLIC "-//W3C//DTD SVG 1.1//EN" "http://www.w3.org/Graphics/SVG/1.1/DTD/svg11.dtd"><svg t="1664174524616" class="icon" viewBox="0 0 1024 1024" version="1.1" xmlns="http://www.w3.org/2000/svg" p-id="6810" xmlns:xlink="http://www.w3.org/1999/xlink" width="200" height="200"><path d="M955.73333333 237.12c-32.64 14.08-68.16 24.21333333-104.74666666 28.16 37.76-22.50666667 66.45333333-58.02666667 80-100.26666667-34.88 20.8-74.34666667 36.05333333-115.41333334 43.94666667C782.29333333 173.44 735.04 151.46666667 682.66666667 151.46666667c-100.8 0-181.86666667 81.70666667-181.86666667 181.97333333 0 14.08 1.70666667 28.16 4.48 41.70666667-150.93333333-7.89333333-285.54666667-80-375.04-190.4-15.78666667 27.09333333-24.74666667 58.02666667-24.74666667 91.84 0 63.14666667 32.10666667 118.82666667 81.06666667 151.57333333-29.86666667-1.17333333-58.02666667-9.6-82.24-23.14666667v2.24c0 88.42666667 62.50666667 161.70666667 145.81333333 178.56-15.25333333 3.94666667-31.57333333 6.18666667-47.89333333 6.18666667-11.84 0-23.04-1.17333333-34.34666667-2.77333333C190.93333333 661.33333333 258.02666667 713.70666667 337.92 715.41333333c-62.50666667 48.96-140.8 77.76-225.81333333 77.76-15.25333333 0-29.33333333-0.53333333-43.94666667-2.24C148.8 842.66666667 244.48 872.53333333 347.52 872.53333333 682.02666667 872.53333333 865.06666667 595.41333333 865.06666667 354.88c0-7.89333333 0-15.78666667-0.53333334-23.68 35.41333333-25.92 66.45333333-58.02666667 91.2-94.08z" fill="#006cff" p-id="6811"></path></svg>